<svg xmlns="http://www.w3.org/2000/svg" viewBox="0 8.84000015258789 403.7099914550781 39.209999084472656" data-asc="0.9052734375" width="403.7099914550781" height="39.209999084472656"><defs/><g><g fill="#ffffff"><g transform="translate(0, 0)"><path d="M0 45.26L13.75 9.47L18.85 9.47L33.50 45.26L28.10 45.26L23.93 34.42L8.96 34.42L5.03 45.26L0 45.26M10.33 30.57L22.46 30.57L18.73 20.65Q17.02 16.14 16.19 13.23Q15.50 16.67 14.26 20.07L10.33 30.57ZM38.09 45.26L38.09 9.47L42.82 9.47L42.82 45.26L38.09 45.26ZM92.19 41.43Q95.48 43.70 98.27 44.75L96.88 48.05Q93.02 46.66 89.18 43.65Q85.21 45.87 80.40 45.87Q75.54 45.87 71.58 43.53Q67.63 41.19 65.49 36.94Q63.35 32.69 63.35 27.37Q63.35 22.07 65.50 17.72Q67.65 13.38 71.62 11.11Q75.59 8.84 80.49 8.84Q85.45 8.84 89.43 11.19Q93.41 13.55 95.50 17.79Q97.58 22.02 97.58 27.34Q97.58 31.76 96.24 35.29Q94.90 38.82 92.19 41.43M81.76 35.38Q85.86 36.52 88.53 38.79Q92.70 34.99 92.70 27.34Q92.70 23.00 91.22 19.75Q89.75 16.50 86.90 14.71Q84.06 12.92 80.52 12.92Q75.22 12.92 71.73 16.54Q68.24 20.17 68.24 27.37Q68.24 34.35 71.69 38.09Q75.15 41.82 80.52 41.82Q83.06 41.82 85.30 40.87Q83.08 39.43 80.62 38.82L81.76 35.38ZM120.39 45.26L120.39 41.46Q117.36 45.85 112.16 45.85Q109.86 45.85 107.87 44.97Q105.88 44.09 104.92 42.76Q103.96 41.43 103.56 39.50Q103.30 38.21 103.30 35.40L103.30 19.34L107.69 19.34L107.69 33.72Q107.69 37.16 107.96 38.35Q108.37 40.09 109.72 41.08Q111.06 42.07 113.04 42.07Q115.01 42.07 116.75 41.05Q118.48 40.04 119.20 38.29Q119.92 36.55 119.92 33.23L119.92 19.34L124.32 19.34L124.32 45.26L120.39 45.26ZM131.23 14.53L131.23 9.47L135.62 9.47L135.62 14.53L131.23 14.53M131.23 45.26L131.23 19.34L135.62 19.34L135.62 45.26L131.23 45.26ZM139.99 45.26L139.99 41.70L156.49 22.75Q153.69 22.90 151.54 22.90L140.97 22.90L140.97 19.34L162.16 19.34L162.16 22.24L148.12 38.70L145.41 41.70Q148.36 41.48 150.95 41.48L162.94 41.48L162.94 45.26L139.99 45.26ZM198.51 31.23L198.51 27.03L213.67 27.00L213.67 40.28Q210.18 43.07 206.47 44.47Q202.76 45.87 198.85 45.87Q193.58 45.87 189.27 43.62Q184.96 41.36 182.76 37.08Q180.57 32.81 180.57 27.54Q180.57 22.31 182.75 17.79Q184.94 13.26 189.04 11.06Q193.14 8.86 198.49 8.86Q202.37 8.86 205.51 10.12Q208.64 11.38 210.42 13.62Q212.21 15.87 213.13 19.48L208.86 20.65Q208.06 17.92 206.86 16.36Q205.66 14.79 203.44 13.85Q201.22 12.92 198.51 12.92Q195.26 12.92 192.90 13.90Q190.53 14.89 189.07 16.50Q187.62 18.12 186.82 20.04Q185.45 23.36 185.45 27.25Q185.45 32.03 187.10 35.25Q188.75 38.48 191.89 40.04Q195.04 41.60 198.58 41.60Q201.66 41.60 204.59 40.42Q207.52 39.23 209.03 37.89L209.03 31.23L198.51 31.23ZM237.84 36.91L242.38 37.48Q241.31 41.46 238.40 43.65Q235.50 45.85 230.98 45.85Q225.29 45.85 221.96 42.35Q218.63 38.84 218.63 32.52Q218.63 25.98 222.00 22.36Q225.37 18.75 230.74 18.75Q235.94 18.75 239.23 22.29Q242.53 25.83 242.53 32.25Q242.53 32.64 242.50 33.42L223.17 33.42Q223.41 37.70 225.59 39.97Q227.76 42.24 231.01 42.24Q233.42 42.24 235.13 40.97Q236.84 39.70 237.84 36.91M223.41 29.81L237.89 29.81Q237.60 26.54 236.23 24.90Q234.13 22.36 230.79 22.36Q227.76 22.36 225.70 24.39Q223.63 26.42 223.41 29.81ZM247.90 45.26L247.90 19.34L251.86 19.34L251.86 23.02Q254.71 18.75 260.11 18.75Q262.45 18.75 264.42 19.59Q266.38 20.43 267.36 21.80Q268.33 23.17 268.73 25.05Q268.97 26.27 268.97 29.32L268.97 45.26L264.58 45.26L264.58 29.49Q264.58 26.81 264.06 25.48Q263.55 24.15 262.24 23.35Q260.94 22.56 259.18 22.56Q256.37 22.56 254.33 24.34Q252.29 26.12 252.29 31.10L252.29 45.26L247.90 45.26ZM293.46 36.91L298.00 37.48Q296.92 41.46 294.02 43.65Q291.11 45.85 286.60 45.85Q280.91 45.85 277.58 42.35Q274.24 38.84 274.24 32.52Q274.24 25.98 277.61 22.36Q280.98 18.75 286.35 18.75Q291.55 18.75 294.85 22.29Q298.14 25.83 298.14 32.25Q298.14 32.64 298.12 33.42L278.78 33.42Q279.03 37.70 281.20 39.97Q283.37 42.24 286.62 42.24Q289.04 42.24 290.75 40.97Q292.46 39.70 293.46 36.91M279.03 29.81L293.51 29.81Q293.21 26.54 291.85 24.90Q289.75 22.36 286.40 22.36Q283.37 22.36 281.31 24.39Q279.25 26.42 279.03 29.81ZM303.47 45.26L303.47 19.34L307.42 19.34L307.42 23.27Q308.94 20.51 310.22 19.63Q311.50 18.75 313.04 18.75Q315.26 18.75 317.55 20.17L316.04 24.24Q314.43 23.29 312.82 23.29Q311.38 23.29 310.23 24.16Q309.08 25.02 308.59 26.56Q307.86 28.91 307.86 31.69L307.86 45.26L303.47 45.26ZM337.08 42.07Q334.64 44.14 332.39 45.00Q330.13 45.85 327.54 45.85Q323.27 45.85 320.97 43.76Q318.68 41.67 318.68 38.43Q318.68 36.52 319.54 34.95Q320.41 33.37 321.81 32.42Q323.22 31.47 324.98 30.98Q326.27 30.64 328.88 30.32Q334.20 29.69 336.72 28.81Q336.74 27.91 336.74 27.66Q336.74 24.98 335.50 23.88Q333.81 22.39 330.49 22.39Q327.39 22.39 325.92 23.47Q324.44 24.56 323.73 27.32L319.43 26.73Q320.02 23.97 321.36 22.28Q322.71 20.58 325.24 19.67Q327.78 18.75 331.13 18.75Q334.45 18.75 336.52 19.53Q338.60 20.31 339.58 21.50Q340.55 22.68 340.94 24.49Q341.16 25.61 341.16 28.54L341.16 34.40Q341.16 40.53 341.44 42.15Q341.72 43.77 342.55 45.26L337.96 45.26Q337.28 43.90 337.08 42.07M336.72 32.25Q334.33 33.23 329.54 33.91Q326.83 34.30 325.71 34.79Q324.58 35.28 323.97 36.22Q323.36 37.16 323.36 38.31Q323.36 40.06 324.69 41.24Q326.03 42.41 328.59 42.41Q331.13 42.41 333.11 41.30Q335.08 40.19 336.01 38.26Q336.72 36.77 336.72 33.86L336.72 32.25ZM357.57 41.33L358.20 45.21Q356.35 45.61 354.88 45.61Q352.49 45.61 351.17 44.85Q349.85 44.09 349.32 42.86Q348.78 41.63 348.78 37.67L348.78 22.75L345.56 22.75L345.56 19.34L348.78 19.34L348.78 12.92L353.15 10.28L353.15 19.34L357.57 19.34L357.57 22.75L353.15 22.75L353.15 37.92Q353.15 39.79 353.38 40.33Q353.61 40.87 354.14 41.19Q354.66 41.50 355.64 41.50Q356.37 41.50 357.57 41.33ZM360.23 32.30Q360.23 25.10 364.23 21.63Q367.58 18.75 372.39 18.75Q377.73 18.75 381.13 22.25Q384.52 25.76 384.52 31.93Q384.52 36.94 383.02 39.81Q381.52 42.68 378.65 44.26Q375.78 45.85 372.39 45.85Q366.94 45.85 363.59 42.36Q360.23 38.87 360.23 32.30M364.75 32.30Q364.75 37.28 366.92 39.76Q369.09 42.24 372.39 42.24Q375.66 42.24 377.83 39.75Q380.00 37.26 380.00 32.15Q380.00 27.34 377.82 24.87Q375.63 22.39 372.39 22.39Q369.09 22.39 366.92 24.85Q364.75 27.32 364.75 32.30ZM389.62 45.26L389.62 19.34L393.58 19.34L393.58 23.27Q395.09 20.51 396.37 19.63Q397.66 18.75 399.19 18.75Q401.42 18.75 403.71 20.17L402.20 24.24Q400.59 23.29 398.97 23.29Q397.53 23.29 396.39 24.16Q395.24 25.02 394.75 26.56Q394.02 28.91 394.02 31.69L394.02 45.26L389.62 45.26Z"/></g></g></g></svg>